<?xml version="1.0" encoding="utf-8"?>
<!-- Generator: Adobe Illustrator 24.2.0, SVG Export Plug-In . SVG Version: 6.00 Build 0)  -->
<svg version="1.1" id="Layer_1" xmlns="http://www.w3.org/2000/svg" xmlns:xlink="http://www.w3.org/1999/xlink" x="0px" y="0px"
	 viewBox="0 0 1000 1000" style="enable-background:new 0 0 1000 1000;" xml:space="preserve">
<style type="text/css">
	.st0{fill-rule:evenodd;clip-rule:evenodd;}
	.st1{fill-rule:evenodd;clip-rule:evenodd;stroke:#000000;stroke-width:0.5669;stroke-miterlimit:22.9256;}
</style>
<g>
	<polygon class="st0" points="529.7,130.7 567.7,130.8 567.5,551.4 713.5,405.3 761.2,405.3 611,556.7 799,744.5 747.8,744.8 
		585.5,581.9 568,599.3 568,745.4 530,745.4 529.7,130.7 	"/>
	<path class="st1" d="M374.9,391.1c47,0,89.6,18.6,120.9,48.9l-27.1,20.1c-24.9-22.2-57.8-35.7-93.8-35.7c-77.9,0-141,63.1-141,141
		c0,77.9,63.1,141,141,141c36.6,0,70-14,95-36.8l26.6,19.8c-31.4,30.7-74.3,49.6-121.6,49.6c-96,0-173.9-77.8-173.9-173.9
		C201,469,278.9,391.1,374.9,391.1L374.9,391.1z"/>
	<path class="st0" d="M249.1,860.9c-20.9,0-38.8-19-38.8-39.6c0-20.6,17.5-39.9,38.6-39.9c13.9,0,23.9,6.7,32,17.2h10.2l0,0
		c-3.1-5.5-6.3-10.6-11.3-14.6c-8.6-6.9-19.7-11.1-30.8-11.1c-26.5,0-48.1,21.9-48.1,48.2c0,26.4,21.9,48.1,48.2,48.1
		c10.8,0,21.3-4,29.7-10.6c5.3-4.3,9-9.8,12.6-15.5h-10.2l0,0C273.3,853.7,263,860.9,249.1,860.9L249.1,860.9L249.1,860.9z"/>
	<path class="st0" d="M355.1,810.5c-6.4-8.3-15.2-13.5-26-13.5c-19.4,0-35.4,15.8-35.4,35.2c0,19.4,16.1,35.3,35.4,35.3
		c11.3,0,19.1-4.7,26-13.4v11.8h8.4v-67.3h-8.4V810.5L355.1,810.5z M328.7,859.7c-14.9,0-26.6-12.9-26.6-27.5
		c0-14.5,11.6-27.5,26.6-27.5c14.9,0,26.4,13,26.4,27.5C355.1,846.8,343.5,859.7,328.7,859.7L328.7,859.7L328.7,859.7z"/>
	<polygon class="st0" points="373.8,865.9 382.8,865.9 382.8,774.9 373.8,774.9 373.8,865.9 	"/>
	<polygon class="st0" points="417,855.2 394.1,798.6 385.2,798.6 412.6,865.9 421.7,865.9 449,798.6 440.2,798.6 417,855.2 
		417,855.2 	"/>
	<polygon class="st0" points="452.7,865.9 461.8,865.9 461.8,798.6 452.7,798.6 452.7,865.9 	"/>
	<polygon class="st0" points="452.7,790 461.8,790 461.8,774.9 452.7,774.9 452.7,790 	"/>
	<path class="st0" d="M500.7,797c-8.5,0-14.6,4.5-20.2,10.5v-8.8h-8.4v67.3h8.9v-41c-0.1-10.8,8.9-20.2,19.8-20.2
		c13.7,0,20.5,11.9,20.5,24.1v37h8.4v-37C529.7,811.4,519.5,797,500.7,797L500.7,797L500.7,797z"/>
	<polygon class="st0" points="613.6,774.9 572.5,827.1 572.5,774.9 563.6,774.9 563.6,865.9 572.5,865.9 572.5,840.9 584.1,826.4 
		613.8,865.9 625.1,865.9 589.8,819.2 625.1,774.9 613.6,774.9 613.6,774.9 	"/>
	<polygon class="st0" points="628.3,865.9 637.2,865.9 637.2,774.9 628.3,774.9 628.3,865.9 	"/>
	<path class="st0" d="M710.1,815.6c-6.1-11.4-18.4-18.6-31.3-18.6c-19.3,0-35.5,16.1-35.5,35.3c0,19.4,16.4,35.2,35.7,35.2
		c9.2,0,18.2-3.7,24.9-10c4-3.8,6.4-8.6,8.6-13.6h-9.5l0,0c-4.8,9.3-13.2,15.8-24.1,15.8c-6.6,0-13.1-2.7-18.1-7.2
		c-5.1-4.6-7.3-10.3-8.3-17h62l0,0C714.5,828.4,713.5,821.7,710.1,815.6L710.1,815.6L710.1,815.6z M652.8,827.7
		c2.7-12.6,12.6-22.9,26.2-22.9c11.4,0,23.7,7,26.4,22.9H652.8L652.8,827.7L652.8,827.7z"/>
	<polygon class="st0" points="721.1,865.9 730,865.9 730,798.6 721.1,798.6 721.1,865.9 	"/>
	<polygon class="st0" points="721.1,790.3 730,790.3 730,774.9 721.1,774.9 721.1,790.3 	"/>
	<path class="st0" d="M769,797c-8.7,0-14.7,4.5-20.4,10.5v-8.8h-8.5v67.3h9v-41c-0.1-10.9,9.1-20.2,20.1-20.2
		c13.6,0,20.8,11.9,20.8,24.1v37h8.4v-37C798.3,811.4,787.9,797,769,797L769,797L769,797z"/>
</g>
</svg>
